<svg width="14" height="10" viewBox="0 0 14 10" fill="none" xmlns="http://www.w3.org/2000/svg">
<path d="M7.54628 8.88907L13.7763 2.6589C13.9206 2.5148 14 2.32244 14 2.11734C14 1.91224 13.9206 1.71988 13.7763 1.57578L13.3176 1.11697C13.0188 0.818423 12.533 0.818423 12.2345 1.11697L7.0029 6.3486L1.76547 1.11117C1.62126 0.967072 1.42901 0.887512 1.22402 0.887512C1.01881 0.887512 0.826563 0.967072 0.68224 1.11117L0.223658 1.56998C0.0794477 1.71419 9.09136e-07 1.90643 9.00171e-07 2.11153C8.91205e-07 2.31664 0.0794477 2.50899 0.223658 2.65309L6.45941 8.88907C6.60408 9.03351 6.79723 9.11284 7.00256 9.11239C7.20869 9.11284 7.40173 9.03351 7.54628 8.88907Z" fill="#C1B9B9"/>
</svg>
