<svg width="96" height="102" viewBox="0 0 96 102" fill="none" xmlns="http://www.w3.org/2000/svg">
<path d="M85.4659 61.9757C87.7045 55.3896 88.8398 48.5191 88.8398 41.5285V17.9566C88.8398 16.9892 88.1448 16.1614 87.1919 15.9943L87.062 15.9715C72.3326 13.3889 58.4012 8.11436 45.655 0.294026C45.0145 -0.099033 44.2073 -0.0980369 43.5676 0.296217C30.9104 8.09962 17.0663 13.3584 2.42034 15.9265L2.03466 15.9941C1.08179 16.1612 0.386719 16.989 0.386719 17.9566V41.5285C0.386719 54.9814 4.54999 67.8569 12.4265 78.7627C20.303 89.6687 31.2164 97.6692 43.9869 101.899C44.1903 101.966 44.4019 102 44.6133 102C44.8252 102 45.0372 101.966 45.2412 101.898L45.2665 101.89C49.9545 100.335 54.4425 98.2399 58.6309 95.6577C62.5549 99.5747 67.9679 102 73.9371 102C85.8894 102 95.6133 92.2759 95.6133 80.3236C95.6133 72.6053 91.5574 65.8171 85.4659 61.9757ZM44.6131 97.9054C20.5138 89.6307 4.37109 67.0592 4.37109 41.5285V19.623C18.6499 16.9654 32.1767 11.8232 44.6159 4.32382C57.0654 11.7945 70.5908 16.9356 84.8555 19.62V41.5285C84.8555 47.89 83.8504 54.1443 81.8726 60.1515C80.1627 59.4765 78.3468 59.0146 76.458 58.7948C78.3289 53.241 79.2771 47.4455 79.2771 41.5285V25.7444C79.2771 24.8222 78.6442 24.0206 77.7473 23.8066C66.5174 21.1271 55.698 16.9278 45.5899 11.325C44.988 10.9913 44.2565 10.9921 43.6554 11.3266C33.5485 16.9507 22.7237 21.154 11.4816 23.8194C10.5833 24.0323 9.94902 24.8346 9.94902 25.7578V41.5285C9.94902 52.4095 13.166 62.9029 19.2523 71.8747C25.3162 80.8137 33.8298 87.6628 43.8726 91.6814C44.1101 91.7765 44.3615 91.8241 44.6127 91.8241C44.8639 91.8241 45.1153 91.7765 45.353 91.6814C48.1837 90.5485 50.9176 89.1731 53.5128 87.5841C54.1465 89.3613 55.0055 91.0322 56.056 92.5622C52.4499 94.7383 48.612 96.5316 44.6131 97.9054ZM52.2607 80.3236C52.2607 81.4089 52.342 82.4757 52.4968 83.5189C50.0039 85.1329 47.3599 86.5287 44.6127 87.6793C25.9485 79.8702 13.9336 61.8427 13.9336 41.5285V27.323C24.6265 24.6499 34.939 20.6243 44.626 15.3408C54.3103 20.6028 64.6152 24.6236 75.293 27.3073V41.5285C75.293 47.4342 74.275 53.2081 72.2664 58.7111C61.0915 59.567 52.2607 68.9335 52.2607 80.3236ZM73.9371 98.0156C64.1817 98.0156 56.2451 90.0791 56.2451 80.3236C56.2451 70.568 64.1817 62.6316 73.9371 62.6316C83.6924 62.6316 91.6289 70.5682 91.6289 80.3236C91.6289 90.0789 83.6922 98.0156 73.9371 98.0156Z" fill="#3C4852"/>
<path d="M71.8627 79.5562L67.7087 75.4022L62.79 80.3208L71.8627 89.3934L85.0836 76.1724L80.1651 71.2539L71.8627 79.5562Z" fill="#FFCC80"/>
</svg>
