<svg width="284" height="111" viewBox="0 0 284 111" fill="none" xmlns="http://www.w3.org/2000/svg">
<path d="M131.98 41.795C132.31 42.395 132.37 42.92 132.16 43.37C131.98 43.79 131.53 44 130.81 44H125.95C124.72 44 123.835 43.88 123.295 43.64C122.755 43.4 122.305 42.89 121.945 42.11L118.03 34.055C117.64 33.245 117.235 32.675 116.815 32.345C116.395 31.985 115.78 31.805 114.97 31.805H114.16V42.11C114.16 42.8 114.025 43.295 113.755 43.595C113.485 43.865 112.99 44 112.27 44H107.185C106.465 44 105.955 43.865 105.655 43.595C105.385 43.295 105.25 42.8 105.25 42.11V13.94C105.25 13.25 105.385 12.77 105.655 12.5C105.955 12.2 106.465 12.05 107.185 12.05H112.27C112.99 12.05 113.485 12.2 113.755 12.5C114.025 12.77 114.16 13.25 114.16 13.94V23.93H114.79H115.15L121.63 13.715C122.08 12.995 122.5 12.545 122.89 12.365C123.31 12.155 124.09 12.05 125.23 12.05H130.405C131.095 12.05 131.53 12.23 131.71 12.59C131.92 12.95 131.845 13.43 131.485 14.03L123.295 27.08C124.345 27.83 125.26 28.985 126.04 30.545L131.98 41.795ZM161.242 12.05C162.412 12.05 162.727 12.68 162.187 13.94L150.307 42.335C150.007 43.025 149.662 43.475 149.272 43.685C148.882 43.895 148.192 44 147.202 44H141.487C140.287 44 139.972 43.37 140.542 42.11L143.917 34.55L134.377 13.94C133.777 12.68 134.137 12.05 135.457 12.05H140.767C141.907 12.05 142.687 12.14 143.107 12.32C143.557 12.5 143.932 12.965 144.232 13.715L148.597 23.705L152.737 13.715C153.007 12.965 153.337 12.5 153.727 12.32C154.117 12.14 154.837 12.05 155.887 12.05H161.242ZM191.029 12.05C191.719 12.05 192.199 12.2 192.469 12.5C192.769 12.77 192.919 13.25 192.919 13.94V42.11C192.919 42.8 192.769 43.295 192.469 43.595C192.199 43.865 191.719 44 191.029 44H185.899C185.209 44 184.714 43.865 184.414 43.595C184.144 43.295 184.009 42.8 184.009 42.11V19.925H175.504V42.11C175.504 42.8 175.369 43.295 175.099 43.595C174.829 43.865 174.334 44 173.614 44H168.529C167.809 44 167.299 43.865 166.999 43.595C166.729 43.295 166.594 42.8 166.594 42.11V13.94C166.594 13.25 166.729 12.77 166.999 12.5C167.299 12.2 167.809 12.05 168.529 12.05H191.029ZM224.49 12.005C225.21 12.005 225.705 12.155 225.975 12.455C226.275 12.725 226.425 13.22 226.425 13.94V42.11C226.425 42.8 226.275 43.295 225.975 43.595C225.705 43.865 225.21 44 224.49 44H219.45C218.73 44 218.22 43.865 217.92 43.595C217.65 43.295 217.515 42.785 217.515 42.065V34.415C217.515 33.695 217.515 33.065 217.515 32.525C217.545 31.955 217.59 31.385 217.65 30.815C217.71 30.245 217.755 29.81 217.785 29.51C217.815 29.18 217.89 28.715 218.01 28.115C218.16 27.485 218.265 27.035 218.325 26.765C218.415 26.495 218.565 25.94 218.775 25.1C218.985 24.26 219.135 23.645 219.225 23.255H218.865C218.025 25.565 217.35 27.275 216.84 28.385C216.36 29.495 215.625 30.875 214.635 32.525L208.425 43.1C208.095 43.7 207.48 44 206.58 44H201.135C200.415 44 199.905 43.865 199.605 43.595C199.335 43.295 199.2 42.8 199.2 42.11V13.94C199.2 13.25 199.335 12.77 199.605 12.5C199.905 12.2 200.415 12.05 201.135 12.05H206.22C206.94 12.05 207.435 12.2 207.705 12.5C207.975 12.77 208.11 13.25 208.11 13.94V21.635C208.11 24.065 208.005 25.925 207.795 27.215C207.615 28.505 207.165 30.35 206.445 32.75H206.76C208.38 28.64 209.82 25.52 211.08 23.39L217.2 12.905C217.59 12.305 218.22 12.005 219.09 12.005H224.49ZM119.605 67.05C123.145 67.05 125.965 68.04 128.065 70.02C130.165 72 131.215 74.76 131.215 78.3C131.215 81.81 130.18 84.54 128.11 86.49C126.04 88.44 123.235 89.415 119.695 89.415H114.16V97.11C114.16 97.8 114.025 98.295 113.755 98.595C113.485 98.865 112.99 99 112.27 99H107.185C106.465 99 105.955 98.865 105.655 98.595C105.385 98.295 105.25 97.8 105.25 97.11V68.94C105.25 68.25 105.385 67.77 105.655 67.5C105.955 67.2 106.465 67.05 107.185 67.05H119.605ZM118.615 81.54C119.665 81.54 120.49 81.24 121.09 80.64C121.69 80.04 121.99 79.245 121.99 78.255C121.99 77.265 121.69 76.47 121.09 75.87C120.49 75.24 119.665 74.925 118.615 74.925H114.16V81.54H118.615ZM161.859 97.155C162.309 98.385 161.874 99 160.554 99H155.694C154.554 99 153.744 98.865 153.264 98.595C152.814 98.325 152.499 97.83 152.319 97.11L151.284 93.87H141.564L140.529 97.11C140.289 97.83 139.944 98.325 139.494 98.595C139.074 98.865 138.324 99 137.244 99H132.519C131.259 99 130.854 98.385 131.304 97.155L141.654 68.625C141.864 67.995 142.134 67.575 142.464 67.365C142.794 67.155 143.304 67.05 143.994 67.05H149.124C149.784 67.05 150.279 67.155 150.609 67.365C150.969 67.575 151.254 67.965 151.464 68.535L161.859 97.155ZM147.594 81.54C147.324 80.64 147.099 79.665 146.919 78.615C146.769 77.565 146.679 76.74 146.649 76.14L146.604 75.24H146.154C146.184 77.4 145.899 79.485 145.299 81.495L143.634 86.805H149.259L147.594 81.54ZM187.891 67.005C188.581 67.005 189.061 67.155 189.331 67.455C189.631 67.725 189.781 68.22 189.781 68.94V72.45C189.781 73.17 189.631 73.665 189.331 73.935C189.061 74.205 188.581 74.34 187.891 74.34H175.021V78.345H181.456C184.636 78.345 187.171 79.275 189.061 81.135C190.981 82.965 191.941 85.485 191.941 88.695C191.941 91.845 190.981 94.35 189.061 96.21C187.171 98.07 184.636 99 181.456 99H168.001C167.311 99 166.816 98.865 166.516 98.595C166.246 98.325 166.111 97.86 166.111 97.2V68.94C166.111 68.22 166.246 67.725 166.516 67.455C166.816 67.155 167.326 67.005 168.046 67.005H187.891ZM182.851 88.65C182.851 86.67 181.756 85.68 179.566 85.68H175.021V91.665H179.566C181.756 91.665 182.851 90.66 182.851 88.65ZM195.974 78.975C195.974 75.045 197.174 71.97 199.574 69.75C202.004 67.5 205.424 66.375 209.834 66.375C214.214 66.375 217.604 67.5 220.004 69.75C222.434 71.97 223.649 75.045 223.649 78.975V87.075C223.649 91.005 222.434 94.095 220.004 96.345C217.604 98.565 214.214 99.675 209.834 99.675C205.424 99.675 202.004 98.565 199.574 96.345C197.174 94.095 195.974 91.005 195.974 87.075V78.975ZM214.739 78.57C214.739 77.16 214.304 76.095 213.434 75.375C212.594 74.625 211.394 74.25 209.834 74.25C208.244 74.25 207.014 74.625 206.144 75.375C205.304 76.095 204.884 77.16 204.884 78.57V87.48C204.884 88.89 205.304 89.97 206.144 90.72C207.014 91.44 208.244 91.8 209.834 91.8C211.394 91.8 212.594 91.44 213.434 90.72C214.304 89.97 214.739 88.89 214.739 87.48V78.57ZM251.272 67.05C251.992 67.05 252.487 67.2 252.757 67.5C253.057 67.77 253.207 68.25 253.207 68.94V72.99C253.207 73.71 253.057 74.22 252.757 74.52C252.487 74.79 251.992 74.925 251.272 74.925H244.612V97.11C244.612 97.8 244.462 98.295 244.162 98.595C243.892 98.865 243.397 99 242.677 99H237.592C236.872 99 236.377 98.865 236.107 98.595C235.837 98.295 235.702 97.8 235.702 97.11V74.925H228.997C228.277 74.925 227.782 74.79 227.512 74.52C227.242 74.22 227.107 73.71 227.107 72.99V68.94C227.107 68.25 227.242 67.77 227.512 67.5C227.782 67.2 228.277 67.05 228.997 67.05H251.272ZM282.436 67.05C283.606 67.05 283.921 67.68 283.381 68.94L271.501 97.335C271.201 98.025 270.856 98.475 270.466 98.685C270.076 98.895 269.386 99 268.396 99H262.681C261.481 99 261.166 98.37 261.736 97.11L265.111 89.55L255.571 68.94C254.971 67.68 255.331 67.05 256.651 67.05H261.961C263.101 67.05 263.881 67.14 264.301 67.32C264.751 67.5 265.126 67.965 265.426 68.715L269.791 78.705L273.931 68.715C274.201 67.965 274.531 67.5 274.921 67.32C275.311 67.14 276.031 67.05 277.081 67.05H282.436Z" fill="white"/>
<path d="M26.6582 94.3291H54.3417C46.7651 102.703 40.4926 107.658 40.4926 107.658C40.4926 107.658 34.2348 102.703 26.6582 94.3291Z" fill="white"/>
<path d="M25.8597 23.5823C23.9218 23.5866 22.0229 24.1141 20.3731 25.1065C18.7233 26.099 17.3869 27.5176 16.5118 29.2054C15.6367 30.8933 15.257 32.7845 15.4147 34.6699C15.5725 36.5554 16.2615 38.3614 17.4055 39.8883C18.5495 41.4152 20.104 42.6034 21.8969 43.3214C23.6898 44.0394 25.6512 44.2592 27.5642 43.9565C29.4771 43.6538 31.267 42.8404 32.7357 41.6064C34.2045 40.3723 35.2949 38.7656 35.8862 36.9641C35.8832 36.6214 35.6972 28.1874 25.8597 23.5823ZM25.9018 38.1681C25.0209 38.1681 24.1599 37.9132 23.4275 37.4355C22.6951 36.9578 22.1243 36.2788 21.7872 35.4845C21.4501 34.6901 21.3619 33.816 21.5338 32.9727C21.7056 32.1294 22.1298 31.3548 22.7526 30.7468C23.3755 30.1388 24.169 29.7247 25.0329 29.557C25.8968 29.3892 26.7923 29.4753 27.606 29.8044C28.4198 30.1334 29.1154 30.6906 29.6047 31.4055C30.0941 32.1205 30.3553 32.961 30.3553 33.8208C30.3553 34.9738 29.8861 36.0796 29.0509 36.8948C28.2157 37.7101 27.0829 38.1681 25.9018 38.1681Z" fill="white"/>
<path d="M45.1138 36.8967C45.693 38.706 46.7742 40.3229 48.2372 41.5679C49.7002 42.8128 51.4878 43.637 53.4014 43.9489C55.3149 44.2608 57.2795 44.0482 59.0768 43.3346C60.8741 42.6211 62.4338 41.4347 63.5826 39.9071C64.7314 38.3795 65.4243 36.5705 65.5843 34.6813C65.7444 32.792 65.3653 30.8964 64.4891 29.205C63.613 27.5136 62.2742 26.0926 60.6214 25.1001C58.9686 24.1075 57.0665 23.5821 55.1266 23.5823C45.7133 27.9941 45.1408 35.9212 45.1138 36.8967ZM55.1116 29.4793C55.9917 29.4787 56.8523 29.7333 57.5843 30.2107C58.3164 30.6882 58.8871 31.3671 59.2242 32.1616C59.5612 32.9561 59.6496 33.8305 59.478 34.6741C59.3065 35.5176 58.8827 36.2925 58.2604 36.9007C57.638 37.5088 56.845 37.9229 55.9818 38.0906C55.1185 38.2582 54.2237 38.1719 53.4107 37.8425C52.5977 37.5131 51.9029 36.9554 51.4143 36.2401C50.9257 35.5247 50.6652 34.6838 50.6658 33.8237C50.6666 32.6728 51.1344 31.5691 51.9667 30.7547C52.799 29.9403 53.9278 29.4816 55.1056 29.4793H55.1116Z" fill="white"/>
<path d="M81 40.8835C81 58.7252 71.476 75.0594 61.6653 87.1519H19.3436C9.52397 75.0594 1.57474e-05 58.7252 1.57474e-05 40.8835C-0.00567365 34.5084 1.53036 28.2245 4.47977 22.557C6.85127 24.2095 9.43827 25.5359 12.17 26.5002C11.1588 28.5622 10.494 30.7736 10.2019 33.0474C8.03072 50.9985 22.4466 52.9435 40.5149 52.9435C58.5833 52.9435 72.9931 50.9985 70.8219 33.0474C70.5312 30.7685 69.8632 28.5525 68.8449 26.4883C71.5723 25.5241 74.1576 24.204 76.5321 22.5629C79.478 28.2291 81.01 34.5112 81 40.8835Z" fill="white"/>
<path d="M4.11483 78.9493H76.8882C77.9787 78.9493 79.0246 79.3813 79.7957 80.1501C80.5668 80.919 81 81.9618 81 83.0491C81.0004 83.5877 80.8943 84.1212 80.6879 84.6189C80.4814 85.1167 80.1786 85.569 79.7967 85.95C79.4149 86.331 78.9615 86.6333 78.4624 86.8395C77.9633 87.0457 77.4284 87.1519 76.8882 87.1519H4.11483C3.57446 87.1519 3.03939 87.0457 2.54015 86.8396C2.04092 86.6334 1.5873 86.3312 1.2052 85.9502C0.823108 85.5692 0.520012 85.1169 0.313222 84.6192C0.106433 84.1214 0 83.5879 0 83.0491C-1.43914e-07 82.5105 0.106455 81.9771 0.313282 81.4795C0.520108 80.9819 0.823249 80.5298 1.20539 80.1491C1.58752 79.7683 2.04116 79.4664 2.54038 79.2606C3.03959 79.0547 3.5746 78.9489 4.11483 78.9493Z" fill="#FFCC80"/>
<path d="M81 2.05311C78.0133 4.98612 75.0417 6.02325 71.8209 6.02325C64.0676 6.02325 54.8645 0 40.5045 0C26.1445 0 16.9414 6.02325 9.1791 6.02325C5.95831 6.02325 2.98966 4.98914 0 2.05311C0 12.2521 6.55864 19.8054 20.3483 22.3997H20.3093C22.2665 22.845 24.169 23.5061 25.9824 24.3712C35.8219 29.1245 36.008 37.8298 36.011 38.1836V38.2047L40.4775 45.1139L44.98 38.2319C44.98 38.2319 44.98 38.1896 44.98 38.1231C45.013 37.1162 45.5803 28.934 55.0056 24.3803C56.8176 23.5176 58.718 22.8575 60.6727 22.4118H60.6487C74.4444 19.8114 81 12.2582 81 2.05311Z" fill="#FFCC80"/>
</svg>
